G04*
G04 #@! TF.GenerationSoftware,Altium Limited,Altium Designer,22.11.1 (43)*
G04*
G04 Layer_Physical_Order=2*
G04 Layer_Color=16711680*
%FSLAX25Y25*%
%MOIN*%
G70*
G04*
G04 #@! TF.SameCoordinates,20756010-ACC5-4C0E-8554-74307577B851*
G04*
G04*
G04 #@! TF.FilePolarity,Positive*
G04*
G01*
G75*
%ADD10C,0.01181*%
%ADD14C,0.02362*%
%ADD56C,0.14823*%
%ADD57C,0.13228*%
%ADD58R,0.05906X0.05906*%
%ADD59C,0.05906*%
%ADD60R,0.05347X0.05347*%
%ADD61C,0.05347*%
%ADD62C,0.23622*%
%ADD63C,0.05634*%
%ADD64C,0.13583*%
%ADD65C,0.02756*%
G36*
X385024Y803D02*
X803D01*
Y176363D01*
X61024D01*
Y155512D01*
X88583D01*
Y176363D01*
X385024D01*
Y803D01*
D02*
G37*
G36*
X84646Y157480D02*
X74803D01*
Y176378D01*
X84646D01*
Y157480D01*
D02*
G37*
%LPC*%
G36*
X371048Y173728D02*
X369110D01*
X367196Y173425D01*
X365353Y172826D01*
X363626Y171947D01*
X362059Y170808D01*
X360688Y169437D01*
X359549Y167870D01*
X358670Y166143D01*
X358071Y164300D01*
X357768Y162386D01*
Y160448D01*
X358071Y158535D01*
X358670Y156692D01*
X359549Y154965D01*
X360688Y153397D01*
X362059Y152027D01*
X363626Y150888D01*
X365353Y150008D01*
X367196Y149409D01*
X369110Y149106D01*
X371048D01*
X372962Y149409D01*
X374804Y150008D01*
X376531Y150888D01*
X378099Y152027D01*
X379469Y153397D01*
X380608Y154965D01*
X381488Y156692D01*
X382087Y158535D01*
X382390Y160448D01*
Y162386D01*
X382087Y164300D01*
X381488Y166143D01*
X380608Y167870D01*
X379469Y169437D01*
X378099Y170808D01*
X376531Y171947D01*
X374804Y172826D01*
X372962Y173425D01*
X371048Y173728D01*
D02*
G37*
G36*
X16717D02*
X14779D01*
X12865Y173425D01*
X11022Y172826D01*
X9296Y171947D01*
X7728Y170808D01*
X6358Y169437D01*
X5219Y167870D01*
X4339Y166143D01*
X3740Y164300D01*
X3437Y162386D01*
Y160448D01*
X3740Y158535D01*
X4339Y156692D01*
X5219Y154965D01*
X6358Y153397D01*
X7728Y152027D01*
X9296Y150888D01*
X11022Y150008D01*
X12865Y149409D01*
X14779Y149106D01*
X16717D01*
X18631Y149409D01*
X20474Y150008D01*
X22200Y150888D01*
X23768Y152027D01*
X25138Y153397D01*
X26277Y154965D01*
X27157Y156692D01*
X27756Y158535D01*
X28059Y160448D01*
Y162386D01*
X27756Y164300D01*
X27157Y166143D01*
X26277Y167870D01*
X25138Y169437D01*
X23768Y170808D01*
X22200Y171947D01*
X20474Y172826D01*
X18631Y173425D01*
X16717Y173728D01*
D02*
G37*
G36*
X379752Y143217D02*
X376549D01*
Y140014D01*
X379752D01*
Y143217D01*
D02*
G37*
G36*
X277699D02*
X277494D01*
Y140014D01*
X280697D01*
Y140218D01*
X280462Y141096D01*
X280007Y141884D01*
X279364Y142527D01*
X278577Y142981D01*
X277699Y143217D01*
D02*
G37*
G36*
X376049D02*
X372847D01*
Y140014D01*
X376049D01*
Y143217D01*
D02*
G37*
G36*
X276994D02*
X276789D01*
X275911Y142981D01*
X275124Y142527D01*
X274481Y141884D01*
X274027Y141096D01*
X273791Y140218D01*
Y140014D01*
X276994D01*
Y143217D01*
D02*
G37*
G36*
X379752Y139514D02*
X376549D01*
Y136311D01*
X379752D01*
Y139514D01*
D02*
G37*
G36*
X376049D02*
X372847D01*
Y136311D01*
X376049D01*
Y139514D01*
D02*
G37*
G36*
X356754Y143217D02*
X355845D01*
X354966Y142981D01*
X354179Y142527D01*
X353536Y141884D01*
X353082Y141096D01*
X352847Y140218D01*
Y139309D01*
X353082Y138431D01*
X353536Y137644D01*
X354179Y137001D01*
X354966Y136546D01*
X355845Y136311D01*
X356754D01*
X357632Y136546D01*
X358419Y137001D01*
X359062Y137644D01*
X359517Y138431D01*
X359752Y139309D01*
Y140218D01*
X359517Y141096D01*
X359062Y141884D01*
X358419Y142527D01*
X357632Y142981D01*
X356754Y143217D01*
D02*
G37*
G36*
X346754D02*
X345845D01*
X344967Y142981D01*
X344179Y142527D01*
X343536Y141884D01*
X343082Y141096D01*
X342846Y140218D01*
Y139309D01*
X343082Y138431D01*
X343536Y137644D01*
X344179Y137001D01*
X344967Y136546D01*
X345845Y136311D01*
X346754D01*
X347632Y136546D01*
X348419Y137001D01*
X349062Y137644D01*
X349517Y138431D01*
X349752Y139309D01*
Y140218D01*
X349517Y141096D01*
X349062Y141884D01*
X348419Y142527D01*
X347632Y142981D01*
X346754Y143217D01*
D02*
G37*
G36*
X310697D02*
X303791D01*
Y136311D01*
X310697D01*
Y143217D01*
D02*
G37*
G36*
X280697Y139514D02*
X277494D01*
Y136311D01*
X277699D01*
X278577Y136546D01*
X279364Y137001D01*
X280007Y137644D01*
X280462Y138431D01*
X280697Y139309D01*
Y139514D01*
D02*
G37*
G36*
X276994D02*
X273791D01*
Y139309D01*
X274027Y138431D01*
X274481Y137644D01*
X275124Y137001D01*
X275911Y136546D01*
X276789Y136311D01*
X276994D01*
Y139514D01*
D02*
G37*
G36*
X267699Y143217D02*
X266790D01*
X265911Y142981D01*
X265124Y142527D01*
X264481Y141884D01*
X264027Y141096D01*
X263791Y140218D01*
Y139309D01*
X264027Y138431D01*
X264481Y137644D01*
X265124Y137001D01*
X265911Y136546D01*
X266790Y136311D01*
X267699D01*
X268577Y136546D01*
X269364Y137001D01*
X270007Y137644D01*
X270462Y138431D01*
X270697Y139309D01*
Y140218D01*
X270462Y141096D01*
X270007Y141884D01*
X269364Y142527D01*
X268577Y142981D01*
X267699Y143217D01*
D02*
G37*
G36*
X191318Y151484D02*
X190571D01*
X189881Y151198D01*
X189353Y150670D01*
X189067Y149980D01*
Y149233D01*
X189353Y148542D01*
X189833Y148062D01*
Y117686D01*
X189353Y117206D01*
X189067Y116515D01*
Y115768D01*
X189353Y115078D01*
X189881Y114550D01*
X190571Y114264D01*
X191318D01*
X192009Y114550D01*
X192537Y115078D01*
X192823Y115768D01*
Y116515D01*
X192537Y117206D01*
X192057Y117686D01*
Y148062D01*
X192537Y148542D01*
X192823Y149233D01*
Y149980D01*
X192537Y150670D01*
X192009Y151198D01*
X191318Y151484D01*
D02*
G37*
G36*
X374433Y107504D02*
X373598D01*
X372791Y107288D01*
X372067Y106870D01*
X371477Y106279D01*
X371059Y105555D01*
X370843Y104748D01*
Y103913D01*
X371059Y103106D01*
X371477Y102382D01*
X372067Y101792D01*
X372791Y101374D01*
X373598Y101157D01*
X374433D01*
X375241Y101374D01*
X375964Y101792D01*
X376555Y102382D01*
X376973Y103106D01*
X377189Y103913D01*
Y104748D01*
X376973Y105555D01*
X376555Y106279D01*
X375964Y106870D01*
X375241Y107288D01*
X374433Y107504D01*
D02*
G37*
G36*
X367189D02*
X360842D01*
Y101157D01*
X367189D01*
Y107504D01*
D02*
G37*
G36*
X163759Y119988D02*
X163012D01*
X162322Y119702D01*
X161794Y119174D01*
X161508Y118484D01*
Y117737D01*
X161794Y117046D01*
X162274Y116566D01*
Y90127D01*
X161794Y89647D01*
X161508Y88956D01*
Y88209D01*
X161794Y87519D01*
X162322Y86991D01*
X163012Y86705D01*
X163759D01*
X164450Y86991D01*
X164978Y87519D01*
X165264Y88209D01*
Y88956D01*
X164978Y89647D01*
X164498Y90127D01*
Y116566D01*
X164978Y117046D01*
X165264Y117737D01*
Y118484D01*
X164978Y119174D01*
X164450Y119702D01*
X163759Y119988D01*
D02*
G37*
G36*
X374433Y89787D02*
X373598D01*
X372791Y89571D01*
X372067Y89153D01*
X371477Y88563D01*
X371059Y87839D01*
X370843Y87032D01*
Y86196D01*
X371059Y85389D01*
X371477Y84666D01*
X372067Y84075D01*
X372791Y83657D01*
X373598Y83441D01*
X374433D01*
X375241Y83657D01*
X375964Y84075D01*
X376555Y84666D01*
X376973Y85389D01*
X377189Y86196D01*
Y87032D01*
X376973Y87839D01*
X376555Y88563D01*
X375964Y89153D01*
X375241Y89571D01*
X374433Y89787D01*
D02*
G37*
G36*
X367189D02*
X360842D01*
Y83441D01*
X367189D01*
Y89787D01*
D02*
G37*
G36*
X247699Y143217D02*
X246790D01*
X245911Y142981D01*
X245124Y142527D01*
X244481Y141884D01*
X244027Y141096D01*
X243791Y140218D01*
Y139309D01*
X244027Y138431D01*
X244481Y137644D01*
X245028Y137097D01*
X244951Y136710D01*
X244951Y136710D01*
Y91012D01*
X228652Y74713D01*
X227973D01*
X227283Y74427D01*
X226754Y73898D01*
X226468Y73208D01*
Y72461D01*
X226754Y71771D01*
X227283Y71243D01*
X227973Y70957D01*
X228720D01*
X229410Y71243D01*
X229939Y71771D01*
X230224Y72461D01*
Y73140D01*
X246849Y89765D01*
X246849Y89765D01*
X247090Y90126D01*
X247175Y90551D01*
X247175Y90551D01*
Y136273D01*
X247200Y136311D01*
X247699D01*
X248577Y136546D01*
X249364Y137001D01*
X250007Y137644D01*
X250462Y138431D01*
X250697Y139309D01*
Y140218D01*
X250462Y141096D01*
X250007Y141884D01*
X249364Y142527D01*
X248577Y142981D01*
X247699Y143217D01*
D02*
G37*
G36*
X257699D02*
X256789D01*
X255911Y142981D01*
X255124Y142527D01*
X254481Y141884D01*
X254027Y141096D01*
X253791Y140218D01*
Y139309D01*
X254027Y138431D01*
X254481Y137644D01*
X255124Y137001D01*
X255911Y136546D01*
X256132Y136487D01*
Y96733D01*
X229408Y70010D01*
X226838D01*
X225323Y71525D01*
Y71592D01*
X225501Y71771D01*
X225787Y72461D01*
Y73208D01*
X225501Y73898D01*
X224973Y74427D01*
X224283Y74713D01*
X223536D01*
X222846Y74427D01*
X222317Y73898D01*
X222031Y73208D01*
Y72461D01*
X222317Y71771D01*
X222846Y71243D01*
X223099Y71138D01*
Y71065D01*
X223099Y71065D01*
X223183Y70639D01*
X223425Y70279D01*
X225592Y68111D01*
X225952Y67870D01*
X226378Y67786D01*
X226378Y67786D01*
X229869D01*
X229869Y67786D01*
X230294Y67870D01*
X230655Y68111D01*
X258030Y95486D01*
X258030Y95486D01*
X258271Y95847D01*
X258356Y96273D01*
Y136487D01*
X258577Y136546D01*
X259364Y137001D01*
X260007Y137644D01*
X260461Y138431D01*
X260697Y139309D01*
Y140218D01*
X260461Y141096D01*
X260007Y141884D01*
X259364Y142527D01*
X258577Y142981D01*
X257699Y143217D01*
D02*
G37*
G36*
X374433Y72071D02*
X373598D01*
X372791Y71855D01*
X372067Y71437D01*
X371477Y70846D01*
X371059Y70122D01*
X370843Y69315D01*
Y68480D01*
X371059Y67673D01*
X371477Y66949D01*
X372067Y66358D01*
X372791Y65941D01*
X373598Y65724D01*
X374433D01*
X375241Y65941D01*
X375964Y66358D01*
X376555Y66949D01*
X376973Y67673D01*
X377189Y68480D01*
Y69315D01*
X376973Y70122D01*
X376555Y70846D01*
X375964Y71437D01*
X375241Y71855D01*
X374433Y72071D01*
D02*
G37*
G36*
X367189D02*
X360842D01*
Y65724D01*
X367189D01*
Y72071D01*
D02*
G37*
G36*
X204852Y59548D02*
X204104D01*
X203414Y59262D01*
X202886Y58734D01*
X202487Y58989D01*
X202287Y59189D01*
X201596Y59475D01*
X200849D01*
X200159Y59189D01*
X199631Y58661D01*
X199345Y57971D01*
Y57224D01*
X199631Y56534D01*
X200159Y56005D01*
X200849Y55719D01*
X200952D01*
Y22277D01*
X197949Y19274D01*
X197914Y19309D01*
X197224Y19594D01*
X196477D01*
X195787Y19309D01*
X195258Y18780D01*
X194973Y18090D01*
Y17343D01*
X195258Y16653D01*
X195787Y16125D01*
X196477Y15839D01*
X196813D01*
X197229Y15793D01*
X197275Y15377D01*
Y15041D01*
X197561Y14351D01*
X198089Y13822D01*
X198779Y13536D01*
X199526D01*
X200217Y13822D01*
X200745Y14351D01*
X201031Y15041D01*
Y15788D01*
X200745Y16478D01*
X200710Y16513D01*
X204531Y20334D01*
X204772Y20695D01*
X204857Y21120D01*
X204857Y21120D01*
Y55795D01*
X205542Y56078D01*
X206070Y56606D01*
X206356Y57297D01*
Y58044D01*
X206070Y58734D01*
X205542Y59262D01*
X204852Y59548D01*
D02*
G37*
G36*
X374470Y56602D02*
X374266D01*
Y53400D01*
X377468D01*
Y53604D01*
X377233Y54482D01*
X376779Y55270D01*
X376136Y55913D01*
X375348Y56367D01*
X374470Y56602D01*
D02*
G37*
G36*
X373766D02*
X373561D01*
X372683Y56367D01*
X371896Y55913D01*
X371253Y55270D01*
X370798Y54482D01*
X370563Y53604D01*
Y53400D01*
X373766D01*
Y56602D01*
D02*
G37*
G36*
X377468Y52900D02*
X374266D01*
Y49697D01*
X374470D01*
X375348Y49932D01*
X376136Y50387D01*
X376779Y51030D01*
X377233Y51817D01*
X377468Y52695D01*
Y52900D01*
D02*
G37*
G36*
X373766D02*
X370563D01*
Y52695D01*
X370798Y51817D01*
X371253Y51030D01*
X371896Y50387D01*
X372683Y49932D01*
X373561Y49697D01*
X373766D01*
Y52900D01*
D02*
G37*
G36*
X327145Y106209D02*
X326398D01*
X325708Y105923D01*
X325180Y105394D01*
X324894Y104704D01*
Y103957D01*
X325180Y103267D01*
X325367Y103080D01*
Y63285D01*
X325367Y63285D01*
X325451Y62860D01*
X325692Y62499D01*
X335828Y52363D01*
X336189Y52122D01*
X336614Y52038D01*
X336614Y52038D01*
X360563D01*
Y49697D01*
X367469D01*
Y56602D01*
X360563D01*
Y54261D01*
X337075D01*
X327590Y63746D01*
Y102637D01*
X327835Y102739D01*
X328364Y103267D01*
X328650Y103957D01*
Y104704D01*
X328364Y105394D01*
X327835Y105923D01*
X327145Y106209D01*
D02*
G37*
G36*
X297699Y143217D02*
X296790D01*
X295911Y142981D01*
X295124Y142527D01*
X294481Y141884D01*
X294027Y141096D01*
X293791Y140218D01*
Y139309D01*
X294027Y138431D01*
X294481Y137644D01*
X295124Y137001D01*
X295911Y136546D01*
X296132Y136487D01*
Y44351D01*
X295652Y43871D01*
X295366Y43181D01*
Y42434D01*
X295652Y41743D01*
X296180Y41215D01*
X296870Y40929D01*
X297618D01*
X298308Y41215D01*
X298836Y41743D01*
X299122Y42434D01*
Y43181D01*
X298836Y43871D01*
X298356Y44351D01*
Y136487D01*
X298577Y136546D01*
X299364Y137001D01*
X300007Y137644D01*
X300462Y138431D01*
X300697Y139309D01*
Y140218D01*
X300462Y141096D01*
X300007Y141884D01*
X299364Y142527D01*
X298577Y142981D01*
X297699Y143217D01*
D02*
G37*
G36*
X122484Y46624D02*
X121611D01*
X120767Y46398D01*
X120011Y45961D01*
X119393Y45344D01*
X118956Y44587D01*
X118730Y43744D01*
Y42870D01*
X118956Y42027D01*
X119393Y41270D01*
X120011Y40653D01*
X120767Y40216D01*
X121611Y39990D01*
X122484D01*
X123328Y40216D01*
X124084Y40653D01*
X124701Y41270D01*
X125138Y42027D01*
X125364Y42870D01*
Y43744D01*
X125138Y44587D01*
X124701Y45344D01*
X124084Y45961D01*
X123328Y46398D01*
X122484Y46624D01*
D02*
G37*
G36*
X112641D02*
X111768D01*
X110924Y46398D01*
X110168Y45961D01*
X109550Y45344D01*
X109114Y44587D01*
X108888Y43744D01*
Y42870D01*
X109114Y42027D01*
X109550Y41270D01*
X110168Y40653D01*
X110924Y40216D01*
X111768Y39990D01*
X112641D01*
X113485Y40216D01*
X114241Y40653D01*
X114859Y41270D01*
X115296Y42027D01*
X115522Y42870D01*
Y43744D01*
X115296Y44587D01*
X114859Y45344D01*
X114241Y45961D01*
X113485Y46398D01*
X112641Y46624D01*
D02*
G37*
G36*
X287699Y143217D02*
X286789D01*
X285911Y142981D01*
X285124Y142527D01*
X284481Y141884D01*
X284027Y141096D01*
X283791Y140218D01*
Y139309D01*
X284027Y138431D01*
X284481Y137644D01*
X285124Y137001D01*
X285911Y136546D01*
X286132Y136487D01*
Y49185D01*
X286132Y49185D01*
X286217Y48760D01*
X286290Y48651D01*
Y42382D01*
X285809Y41902D01*
X285524Y41212D01*
Y40465D01*
X285809Y39775D01*
X286338Y39246D01*
X287028Y38961D01*
X287775D01*
X288465Y39246D01*
X288994Y39775D01*
X289280Y40465D01*
Y41212D01*
X288994Y41902D01*
X288513Y42382D01*
Y49028D01*
X288513Y49028D01*
X288429Y49453D01*
X288356Y49562D01*
Y136487D01*
X288577Y136546D01*
X289364Y137001D01*
X290007Y137644D01*
X290461Y138431D01*
X290697Y139309D01*
Y140218D01*
X290461Y141096D01*
X290007Y141884D01*
X289364Y142527D01*
X288577Y142981D01*
X287699Y143217D01*
D02*
G37*
G36*
X122484Y38750D02*
X122297D01*
Y35683D01*
X125364D01*
Y35870D01*
X125138Y36713D01*
X124701Y37470D01*
X124084Y38087D01*
X123328Y38524D01*
X122484Y38750D01*
D02*
G37*
G36*
X121797D02*
X121611D01*
X120767Y38524D01*
X120011Y38087D01*
X119393Y37470D01*
X118956Y36713D01*
X118730Y35870D01*
Y35683D01*
X121797D01*
Y38750D01*
D02*
G37*
G36*
X125364Y35183D02*
X122297D01*
Y32116D01*
X122484D01*
X123328Y32342D01*
X124084Y32779D01*
X124701Y33396D01*
X125138Y34153D01*
X125364Y34996D01*
Y35183D01*
D02*
G37*
G36*
X121797D02*
X118730D01*
Y34996D01*
X118956Y34153D01*
X119393Y33396D01*
X120011Y32779D01*
X120767Y32342D01*
X121611Y32116D01*
X121797D01*
Y35183D01*
D02*
G37*
G36*
X112641Y38750D02*
X111768D01*
X110924Y38524D01*
X110168Y38087D01*
X109550Y37470D01*
X109114Y36713D01*
X108888Y35870D01*
Y34996D01*
X109114Y34153D01*
X109550Y33396D01*
X110168Y32779D01*
X110924Y32342D01*
X111768Y32116D01*
X112641D01*
X113485Y32342D01*
X114241Y32779D01*
X114859Y33396D01*
X115296Y34153D01*
X115522Y34996D01*
Y35870D01*
X115296Y36713D01*
X114859Y37470D01*
X114241Y38087D01*
X113485Y38524D01*
X112641Y38750D01*
D02*
G37*
G36*
X53850Y42547D02*
X52449D01*
X51074Y42274D01*
X49780Y41738D01*
X48615Y40959D01*
X47624Y39968D01*
X46845Y38803D01*
X46309Y37508D01*
X46035Y36134D01*
Y34732D01*
X46309Y33358D01*
X46845Y32063D01*
X47624Y30898D01*
X48615Y29907D01*
X49780Y29129D01*
X51074Y28592D01*
X52449Y28319D01*
X53850D01*
X55225Y28592D01*
X56519Y29129D01*
X57685Y29907D01*
X58675Y30898D01*
X59454Y32063D01*
X59990Y33358D01*
X60264Y34732D01*
Y36134D01*
X59990Y37508D01*
X59454Y38803D01*
X58675Y39968D01*
X57685Y40959D01*
X56519Y41738D01*
X55225Y42274D01*
X53850Y42547D01*
D02*
G37*
G36*
X366754Y143217D02*
X365845D01*
X364967Y142981D01*
X364179Y142527D01*
X363536Y141884D01*
X363082Y141096D01*
X362846Y140218D01*
Y139309D01*
X363082Y138431D01*
X363536Y137644D01*
X364179Y137001D01*
X364585Y136767D01*
Y132757D01*
X355884Y124056D01*
X331003D01*
X330347Y123925D01*
X329791Y123554D01*
X317686Y111448D01*
X317314Y110892D01*
X317184Y110236D01*
Y30556D01*
X316778Y30322D01*
X316135Y29679D01*
X315680Y28892D01*
X315445Y28014D01*
Y27104D01*
X315680Y26226D01*
X316135Y25439D01*
X316778Y24796D01*
X317565Y24342D01*
X318443Y24106D01*
X319352D01*
X320230Y24342D01*
X321018Y24796D01*
X321660Y25439D01*
X322115Y26226D01*
X322350Y27104D01*
Y28014D01*
X322115Y28892D01*
X321660Y29679D01*
X321018Y30322D01*
X320612Y30556D01*
Y109526D01*
X331713Y120628D01*
X356594D01*
X357250Y120758D01*
X357806Y121130D01*
X367511Y130835D01*
X367883Y131391D01*
X368013Y132047D01*
Y136767D01*
X368419Y137001D01*
X369062Y137644D01*
X369517Y138431D01*
X369752Y139309D01*
Y140218D01*
X369517Y141096D01*
X369062Y141884D01*
X368419Y142527D01*
X367632Y142981D01*
X366754Y143217D01*
D02*
G37*
G36*
X53929Y25628D02*
X53400D01*
Y17966D01*
X61061D01*
Y18496D01*
X60757Y20024D01*
X60161Y21464D01*
X59295Y22760D01*
X58193Y23862D01*
X56897Y24727D01*
X55457Y25324D01*
X53929Y25628D01*
D02*
G37*
G36*
X52900D02*
X52370D01*
X50842Y25324D01*
X49402Y24727D01*
X48106Y23862D01*
X47004Y22760D01*
X46139Y21464D01*
X45542Y20024D01*
X45238Y18496D01*
Y17966D01*
X52900D01*
Y25628D01*
D02*
G37*
G36*
X141545Y32055D02*
X140109D01*
X138700Y31775D01*
X137373Y31225D01*
X136179Y30427D01*
X135163Y29412D01*
X134365Y28218D01*
X133816Y26891D01*
X133535Y25482D01*
Y24046D01*
X133816Y22637D01*
X134365Y21310D01*
X135163Y20116D01*
X136179Y19100D01*
X137373Y18302D01*
X138700Y17753D01*
X140109Y17472D01*
X141545D01*
X142954Y17753D01*
X144281Y18302D01*
X145475Y19100D01*
X146490Y20116D01*
X147288Y21310D01*
X147838Y22637D01*
X148118Y24046D01*
Y25482D01*
X147838Y26891D01*
X147288Y28218D01*
X146490Y29412D01*
X145475Y30427D01*
X144281Y31225D01*
X142954Y31775D01*
X141545Y32055D01*
D02*
G37*
G36*
X94143D02*
X92707D01*
X91298Y31775D01*
X89972Y31225D01*
X88777Y30427D01*
X87762Y29412D01*
X86964Y28218D01*
X86414Y26891D01*
X86134Y25482D01*
Y24046D01*
X86414Y22637D01*
X86964Y21310D01*
X87762Y20116D01*
X88777Y19100D01*
X89972Y18302D01*
X91298Y17753D01*
X92707Y17472D01*
X94143D01*
X95552Y17753D01*
X96879Y18302D01*
X98073Y19100D01*
X99089Y20116D01*
X99887Y21310D01*
X100436Y22637D01*
X100716Y24046D01*
Y25482D01*
X100436Y26891D01*
X99887Y28218D01*
X99089Y29412D01*
X98073Y30427D01*
X96879Y31225D01*
X95552Y31775D01*
X94143Y32055D01*
D02*
G37*
G36*
X61061Y17467D02*
X53400D01*
Y9805D01*
X53929D01*
X55457Y10109D01*
X56897Y10706D01*
X58193Y11571D01*
X59295Y12673D01*
X60161Y13969D01*
X60757Y15409D01*
X61061Y16937D01*
Y17467D01*
D02*
G37*
G36*
X52900D02*
X45238D01*
Y16937D01*
X45542Y15409D01*
X46139Y13969D01*
X47004Y12673D01*
X48106Y11571D01*
X49402Y10706D01*
X50842Y10109D01*
X52370Y9805D01*
X52900D01*
Y17467D01*
D02*
G37*
G36*
X371048Y28059D02*
X369110D01*
X367196Y27756D01*
X365353Y27157D01*
X363626Y26277D01*
X362059Y25138D01*
X360688Y23768D01*
X359549Y22200D01*
X358670Y20474D01*
X358071Y18631D01*
X357768Y16717D01*
Y14779D01*
X358071Y12865D01*
X358670Y11022D01*
X359549Y9296D01*
X360688Y7728D01*
X362059Y6358D01*
X363626Y5219D01*
X365353Y4339D01*
X367196Y3740D01*
X369110Y3437D01*
X371048D01*
X372962Y3740D01*
X374804Y4339D01*
X376531Y5219D01*
X378099Y6358D01*
X379469Y7728D01*
X380608Y9296D01*
X381488Y11022D01*
X382087Y12865D01*
X382390Y14779D01*
Y16717D01*
X382087Y18631D01*
X381488Y20474D01*
X380608Y22200D01*
X379469Y23768D01*
X378099Y25138D01*
X376531Y26277D01*
X374804Y27157D01*
X372962Y27756D01*
X371048Y28059D01*
D02*
G37*
G36*
X16717D02*
X14779D01*
X12865Y27756D01*
X11022Y27157D01*
X9296Y26277D01*
X7728Y25138D01*
X6358Y23768D01*
X5219Y22200D01*
X4339Y20474D01*
X3740Y18631D01*
X3437Y16717D01*
Y14779D01*
X3740Y12865D01*
X4339Y11022D01*
X5219Y9296D01*
X6358Y7728D01*
X7728Y6358D01*
X9296Y5219D01*
X11022Y4339D01*
X12865Y3740D01*
X14779Y3437D01*
X16717D01*
X18631Y3740D01*
X20474Y4339D01*
X22200Y5219D01*
X23768Y6358D01*
X25138Y7728D01*
X26277Y9296D01*
X27157Y11022D01*
X27756Y12865D01*
X28059Y14779D01*
Y16717D01*
X27756Y18631D01*
X27157Y20474D01*
X26277Y22200D01*
X25138Y23768D01*
X23768Y25138D01*
X22200Y26277D01*
X20474Y27157D01*
X18631Y27756D01*
X16717Y28059D01*
D02*
G37*
G36*
X79806Y172443D02*
X79664D01*
X79391Y172432D01*
X79140Y172411D01*
X78899Y172367D01*
X78670Y172312D01*
X78462Y172247D01*
X78265Y172170D01*
X78090Y172094D01*
X77926Y172017D01*
X77784Y171930D01*
X77653Y171853D01*
X77544Y171777D01*
X77456Y171711D01*
X77380Y171656D01*
X77336Y171613D01*
X77303Y171591D01*
X77293Y171580D01*
X77140Y171416D01*
X76997Y171230D01*
X76877Y171044D01*
X76768Y170847D01*
X76680Y170651D01*
X76604Y170465D01*
X76538Y170268D01*
X76484Y170082D01*
X76451Y169919D01*
X76418Y169755D01*
X76385Y169612D01*
X76374Y169481D01*
X76363Y169383D01*
X76353Y169306D01*
Y169241D01*
X77697D01*
X77708Y169405D01*
X77719Y169569D01*
X77784Y169853D01*
X77861Y170104D01*
X77959Y170323D01*
X78014Y170410D01*
X78058Y170487D01*
X78101Y170552D01*
X78145Y170607D01*
X78178Y170651D01*
X78200Y170684D01*
X78211Y170694D01*
X78221Y170705D01*
X78331Y170804D01*
X78440Y170891D01*
X78549Y170957D01*
X78670Y171022D01*
X78910Y171121D01*
X79140Y171186D01*
X79347Y171219D01*
X79435Y171241D01*
X79511D01*
X79577Y171252D01*
X79664D01*
X79828Y171241D01*
X79970Y171230D01*
X80255Y171165D01*
X80484Y171088D01*
X80692Y170990D01*
X80845Y170891D01*
X80910Y170837D01*
X80954Y170804D01*
X80998Y170771D01*
X81031Y170738D01*
X81042Y170727D01*
X81052Y170716D01*
X81140Y170618D01*
X81227Y170509D01*
X81358Y170268D01*
X81446Y170039D01*
X81511Y169809D01*
X81555Y169612D01*
X81566Y169525D01*
Y169448D01*
X81577Y169383D01*
Y169339D01*
Y169306D01*
Y169296D01*
X81566Y169066D01*
X81522Y168836D01*
X81479Y168618D01*
X81413Y168421D01*
X81358Y168257D01*
X81326Y168192D01*
X81304Y168126D01*
X81282Y168082D01*
X81260Y168050D01*
X81249Y168028D01*
Y168017D01*
X81184Y167896D01*
X81107Y167765D01*
X80932Y167503D01*
X80746Y167252D01*
X80561Y167022D01*
X80397Y166825D01*
X80320Y166738D01*
X80255Y166661D01*
X80200Y166607D01*
X80156Y166552D01*
X80134Y166530D01*
X80123Y166519D01*
X76506Y162650D01*
Y161415D01*
X83074D01*
Y162628D01*
X78123D01*
X81063Y165700D01*
X81249Y165896D01*
X81424Y166093D01*
X81577Y166279D01*
X81719Y166465D01*
X81861Y166629D01*
X81971Y166793D01*
X82080Y166946D01*
X82178Y167077D01*
X82255Y167208D01*
X82331Y167317D01*
X82386Y167415D01*
X82430Y167492D01*
X82473Y167558D01*
X82495Y167601D01*
X82517Y167634D01*
Y167645D01*
X82659Y167962D01*
X82768Y168268D01*
X82845Y168541D01*
X82889Y168793D01*
X82911Y168902D01*
X82921Y168989D01*
X82932Y169077D01*
Y169153D01*
X82943Y169208D01*
Y169252D01*
Y169274D01*
Y169284D01*
X82932Y169547D01*
X82911Y169798D01*
X82867Y170039D01*
X82801Y170257D01*
X82736Y170465D01*
X82659Y170651D01*
X82583Y170826D01*
X82506Y170979D01*
X82419Y171121D01*
X82342Y171241D01*
X82266Y171350D01*
X82200Y171438D01*
X82145Y171503D01*
X82102Y171547D01*
X82069Y171580D01*
X82058Y171591D01*
X81883Y171744D01*
X81697Y171875D01*
X81511Y171984D01*
X81315Y172083D01*
X81107Y172170D01*
X80910Y172236D01*
X80714Y172290D01*
X80528Y172334D01*
X80353Y172367D01*
X80189Y172400D01*
X80047Y172422D01*
X79916Y172432D01*
X79806Y172443D01*
D02*
G37*
%LPD*%
D10*
X163386Y88583D02*
Y118110D01*
X326479Y63285D02*
Y104038D01*
X326772Y104331D01*
X326479Y63285D02*
X336614Y53150D01*
X364016D01*
X196850Y17717D02*
X197152Y18018D01*
X198265D01*
X202064Y21817D01*
X364016Y53150D02*
X364016Y53150D01*
X190945Y116142D02*
Y149606D01*
X223909Y72835D02*
X224211Y72533D01*
Y71065D02*
X226378Y68898D01*
X224211Y71065D02*
Y72533D01*
X226378Y68898D02*
X229869D01*
X257244Y96273D01*
X246063Y90551D02*
Y136710D01*
X228346Y72835D02*
X246063Y90551D01*
X246340Y138860D02*
X247244Y139764D01*
X246340Y136987D02*
Y138860D01*
X246063Y136710D02*
X246340Y136987D01*
X257244Y96273D02*
Y139764D01*
X297244Y42807D02*
Y139764D01*
X287402Y40839D02*
Y49028D01*
X202064Y21817D02*
Y56330D01*
X201223Y57171D02*
X202064Y56330D01*
X201223Y57171D02*
Y57597D01*
X287244Y49185D02*
Y139764D01*
Y49185D02*
X287402Y49028D01*
X203745Y21120D02*
Y56511D01*
X204478Y57244D01*
Y57670D01*
X199153Y15414D02*
X199454Y15716D01*
Y16829D01*
X203745Y21120D01*
D14*
X318898Y110236D02*
X331003Y122342D01*
X318898Y27559D02*
Y110236D01*
X331003Y122342D02*
X356594D01*
X366299Y132047D02*
Y139764D01*
X356594Y122342D02*
X366299Y132047D01*
D56*
X53150Y17717D02*
D03*
D57*
Y35433D02*
D03*
D58*
X364016Y53150D02*
D03*
X376299Y139764D02*
D03*
X307244D02*
D03*
D59*
X374016Y53150D02*
D03*
X346299Y139764D02*
D03*
X356299D02*
D03*
X366299D02*
D03*
X247244D02*
D03*
X257244D02*
D03*
X267244D02*
D03*
X277244D02*
D03*
X297244D02*
D03*
X287244D02*
D03*
X318898Y27559D02*
D03*
D60*
X364016Y104331D02*
D03*
Y86614D02*
D03*
Y68898D02*
D03*
D61*
X374016Y104331D02*
D03*
Y86614D02*
D03*
Y68898D02*
D03*
D62*
X15748Y161417D02*
D03*
X370079D02*
D03*
Y15748D02*
D03*
X15748D02*
D03*
D63*
X122047Y43307D02*
D03*
X112205D02*
D03*
Y35433D02*
D03*
X122047D02*
D03*
D64*
X93425Y24764D02*
D03*
X140827D02*
D03*
D65*
X161417Y72835D02*
D03*
X163386Y118110D02*
D03*
X159449Y106299D02*
D03*
X326772Y104331D02*
D03*
X196850Y17717D02*
D03*
X163386Y88583D02*
D03*
X190945Y149606D02*
D03*
X228346Y72835D02*
D03*
X223909D02*
D03*
Y93588D02*
D03*
X297244Y42807D02*
D03*
X287402Y40839D02*
D03*
X201223Y57597D02*
D03*
X207102Y55331D02*
D03*
X204478Y57670D02*
D03*
X199153Y15414D02*
D03*
X108268Y88583D02*
D03*
X131890Y92520D02*
D03*
X124016Y64961D02*
D03*
X53150Y55118D02*
D03*
X33465Y51181D02*
D03*
X143701Y153543D02*
D03*
X190945Y116142D02*
D03*
X202756Y122047D02*
D03*
X187008Y125984D02*
D03*
M02*
