G04*
G04 #@! TF.GenerationSoftware,Altium Limited,Altium Designer,22.11.1 (43)*
G04*
G04 Layer_Color=8421504*
%FSLAX25Y25*%
%MOIN*%
G70*
G04*
G04 #@! TF.SameCoordinates,20756010-ACC5-4C0E-8554-74307577B851*
G04*
G04*
G04 #@! TF.FilePolarity,Positive*
G04*
G01*
G75*
%ADD19R,0.02756X0.03543*%
%ADD20R,0.02362X0.01968*%
%ADD21R,0.03543X0.02756*%
%ADD22R,0.01968X0.02362*%
%ADD23C,0.03937*%
%ADD24R,0.03740X0.03543*%
G04:AMPARAMS|DCode=25|XSize=55.91mil|YSize=22.84mil|CornerRadius=2.85mil|HoleSize=0mil|Usage=FLASHONLY|Rotation=90.000|XOffset=0mil|YOffset=0mil|HoleType=Round|Shape=RoundedRectangle|*
%AMROUNDEDRECTD25*
21,1,0.05591,0.01713,0,0,90.0*
21,1,0.05020,0.02284,0,0,90.0*
1,1,0.00571,0.00856,0.02510*
1,1,0.00571,0.00856,-0.02510*
1,1,0.00571,-0.00856,-0.02510*
1,1,0.00571,-0.00856,0.02510*
%
%ADD25ROUNDEDRECTD25*%
%ADD26R,0.08858X0.13386*%
%ADD27R,0.04650X0.02000*%
%ADD28R,0.02953X0.03937*%
%ADD29O,0.01181X0.06299*%
%ADD30O,0.06299X0.01181*%
G36*
X170079Y44094D02*
X167323Y46850D01*
X164567Y44094D01*
Y50394D01*
X170079D01*
Y44094D01*
D02*
G37*
G36*
Y42323D02*
Y39173D01*
X164567D01*
Y42323D01*
X167323Y45079D01*
X170079Y42323D01*
D02*
G37*
G36*
X130118Y97638D02*
X123819D01*
X126575Y100394D01*
X123819Y103150D01*
X130118D01*
Y97638D01*
D02*
G37*
G36*
X124803Y100394D02*
X122047Y97638D01*
X118898D01*
Y103150D01*
X122047D01*
X124803Y100394D01*
D02*
G37*
D19*
X166339Y76772D02*
D03*
X160433D02*
D03*
X65945Y47244D02*
D03*
X60039D02*
D03*
X370079Y33465D02*
D03*
X364173D02*
D03*
X349409Y108268D02*
D03*
X343504D02*
D03*
X349409Y90551D02*
D03*
X343504D02*
D03*
X349409Y72835D02*
D03*
X343504D02*
D03*
X150591Y159449D02*
D03*
X156496D02*
D03*
X126969Y92520D02*
D03*
X121063D02*
D03*
X125000Y70866D02*
D03*
X119095D02*
D03*
X187008Y120079D02*
D03*
X181102D02*
D03*
D20*
X210630Y55118D02*
D03*
X206693D02*
D03*
X155512Y153543D02*
D03*
X151575D02*
D03*
X364173Y41339D02*
D03*
X368110D02*
D03*
X183071Y116142D02*
D03*
X187008D02*
D03*
X198819Y122047D02*
D03*
X194882D02*
D03*
X206693Y122047D02*
D03*
X210630D02*
D03*
D21*
X94488Y88583D02*
D03*
Y82677D02*
D03*
X45276Y62008D02*
D03*
Y56102D02*
D03*
X33465Y56102D02*
D03*
Y62008D02*
D03*
X159449Y101378D02*
D03*
Y95472D02*
D03*
D22*
X39370Y61024D02*
D03*
Y57087D02*
D03*
X163386Y96457D02*
D03*
Y100394D02*
D03*
X224410Y102362D02*
D03*
Y98425D02*
D03*
X165354Y68898D02*
D03*
Y72835D02*
D03*
D23*
X168565Y113023D02*
D03*
X221237Y60101D02*
D03*
X348425Y15748D02*
D03*
Y161417D02*
D03*
X35433D02*
D03*
D24*
X102362Y82677D02*
D03*
Y88583D02*
D03*
D25*
X120276Y85787D02*
D03*
X127756D02*
D03*
Y76772D02*
D03*
X124016D02*
D03*
X120276D02*
D03*
D26*
X211417Y131890D02*
D03*
X196850D02*
D03*
D27*
X57217Y62795D02*
D03*
Y59055D02*
D03*
Y55315D02*
D03*
X68767D02*
D03*
Y62795D02*
D03*
D28*
X156988Y147638D02*
D03*
Y124016D02*
D03*
X142224Y147638D02*
D03*
Y124016D02*
D03*
D29*
X209646Y109449D02*
D03*
X207677D02*
D03*
X205709D02*
D03*
X203740D02*
D03*
X201772D02*
D03*
X199803D02*
D03*
X197835D02*
D03*
X195866D02*
D03*
X193898D02*
D03*
X191929D02*
D03*
X189961D02*
D03*
X187992D02*
D03*
X186024D02*
D03*
X184055D02*
D03*
X182087D02*
D03*
X180118D02*
D03*
Y63779D02*
D03*
X182087D02*
D03*
X184055D02*
D03*
X186024D02*
D03*
X187992D02*
D03*
X189961D02*
D03*
X191929D02*
D03*
X193898D02*
D03*
X195866D02*
D03*
X197835D02*
D03*
X199803D02*
D03*
X201772D02*
D03*
X203740D02*
D03*
X205709D02*
D03*
X207677D02*
D03*
X209646D02*
D03*
D30*
X172047Y101378D02*
D03*
Y99409D02*
D03*
Y97441D02*
D03*
Y95472D02*
D03*
Y93504D02*
D03*
Y91535D02*
D03*
Y89567D02*
D03*
Y87598D02*
D03*
Y85630D02*
D03*
Y83661D02*
D03*
Y81693D02*
D03*
Y79724D02*
D03*
Y77756D02*
D03*
Y75787D02*
D03*
Y73819D02*
D03*
Y71850D02*
D03*
X217717D02*
D03*
Y73819D02*
D03*
Y75787D02*
D03*
Y77756D02*
D03*
Y79724D02*
D03*
Y81693D02*
D03*
Y83661D02*
D03*
Y85630D02*
D03*
Y87598D02*
D03*
Y89567D02*
D03*
Y91535D02*
D03*
Y93504D02*
D03*
Y95472D02*
D03*
Y97441D02*
D03*
Y99409D02*
D03*
Y101378D02*
D03*
M02*
