G04*
G04 #@! TF.GenerationSoftware,Altium Limited,Altium Designer,22.11.1 (43)*
G04*
G04 Layer_Color=8388736*
%FSLAX25Y25*%
%MOIN*%
G70*
G04*
G04 #@! TF.SameCoordinates,20756010-ACC5-4C0E-8554-74307577B851*
G04*
G04*
G04 #@! TF.FilePolarity,Negative*
G04*
G01*
G75*
%ADD27R,0.04650X0.02000*%
%ADD31R,0.03347X0.04134*%
%ADD32R,0.02953X0.02559*%
%ADD33R,0.04134X0.03347*%
%ADD34R,0.02559X0.02953*%
%ADD35C,0.07874*%
%ADD36R,0.04331X0.04134*%
G04:AMPARAMS|DCode=37|XSize=61.81mil|YSize=28.74mil|CornerRadius=5.81mil|HoleSize=0mil|Usage=FLASHONLY|Rotation=90.000|XOffset=0mil|YOffset=0mil|HoleType=Round|Shape=RoundedRectangle|*
%AMROUNDEDRECTD37*
21,1,0.06181,0.01713,0,0,90.0*
21,1,0.05020,0.02874,0,0,90.0*
1,1,0.01161,0.00856,0.02510*
1,1,0.01161,0.00856,-0.02510*
1,1,0.01161,-0.00856,-0.02510*
1,1,0.01161,-0.00856,0.02510*
%
%ADD37ROUNDEDRECTD37*%
%ADD38R,0.09449X0.13976*%
%ADD39R,0.03543X0.04528*%
%ADD40O,0.01772X0.06890*%
%ADD41O,0.06890X0.01772*%
%ADD42C,0.15413*%
%ADD43C,0.13819*%
%ADD44R,0.06496X0.06496*%
%ADD45C,0.06496*%
%ADD46R,0.05937X0.05937*%
%ADD47C,0.05937*%
%ADD48C,0.24213*%
%ADD49C,0.06224*%
%ADD50C,0.14173*%
%ADD51C,0.03347*%
G36*
X170131Y50791D02*
X170183Y50781D01*
X170232Y50764D01*
X170279Y50741D01*
X170323Y50712D01*
X170362Y50677D01*
X170397Y50638D01*
X170426Y50594D01*
X170449Y50547D01*
X170466Y50497D01*
X170476Y50446D01*
X170480Y50394D01*
Y44094D01*
X170476Y44042D01*
X170466Y43991D01*
X170449Y43941D01*
X170426Y43894D01*
X170397Y43850D01*
X170362Y43811D01*
X170323Y43777D01*
X170279Y43747D01*
X170232Y43724D01*
X170183Y43707D01*
X170131Y43697D01*
X170079Y43694D01*
X170026Y43697D01*
X169975Y43707D01*
X169925Y43724D01*
X169878Y43747D01*
X169835Y43777D01*
X169795Y43811D01*
X167323Y46284D01*
X164850Y43811D01*
X164811Y43777D01*
X164767Y43747D01*
X164720Y43724D01*
X164671Y43707D01*
X164619Y43697D01*
X164567Y43694D01*
X164515Y43697D01*
X164463Y43707D01*
X164413Y43724D01*
X164366Y43747D01*
X164323Y43777D01*
X164284Y43811D01*
X164249Y43850D01*
X164220Y43894D01*
X164197Y43941D01*
X164180Y43991D01*
X164170Y44042D01*
X164166Y44094D01*
Y50394D01*
X164170Y50446D01*
X164180Y50497D01*
X164197Y50547D01*
X164220Y50594D01*
X164249Y50638D01*
X164284Y50677D01*
X164323Y50712D01*
X164366Y50741D01*
X164413Y50764D01*
X164463Y50781D01*
X164515Y50791D01*
X164567Y50795D01*
X170079D01*
X170131Y50791D01*
D02*
G37*
G36*
X167375Y45476D02*
X167427Y45466D01*
X167476Y45449D01*
X167523Y45426D01*
X167567Y45397D01*
X167606Y45362D01*
X170362Y42606D01*
X170397Y42567D01*
X170426Y42523D01*
X170449Y42476D01*
X170466Y42427D01*
X170476Y42375D01*
X170480Y42323D01*
Y39173D01*
X170476Y39121D01*
X170466Y39070D01*
X170449Y39020D01*
X170426Y38973D01*
X170397Y38929D01*
X170362Y38890D01*
X170323Y38855D01*
X170279Y38826D01*
X170232Y38803D01*
X170183Y38786D01*
X170131Y38776D01*
X170079Y38772D01*
X164567D01*
X164515Y38776D01*
X164463Y38786D01*
X164413Y38803D01*
X164366Y38826D01*
X164323Y38855D01*
X164284Y38890D01*
X164249Y38929D01*
X164220Y38973D01*
X164197Y39020D01*
X164180Y39070D01*
X164170Y39121D01*
X164166Y39173D01*
Y42323D01*
X164170Y42375D01*
X164180Y42427D01*
X164197Y42476D01*
X164220Y42523D01*
X164249Y42567D01*
X164284Y42606D01*
X167039Y45362D01*
X167079Y45397D01*
X167122Y45426D01*
X167154Y45441D01*
X167169Y45449D01*
X167219Y45466D01*
X167271Y45476D01*
X167323Y45480D01*
X167375Y45476D01*
D02*
G37*
G36*
X130170Y103547D02*
X130222Y103537D01*
X130271Y103520D01*
X130318Y103497D01*
X130362Y103468D01*
X130402Y103433D01*
X130436Y103394D01*
X130465Y103350D01*
X130489Y103303D01*
X130505Y103253D01*
X130516Y103202D01*
X130519Y103150D01*
Y97638D01*
X130516Y97585D01*
X130505Y97534D01*
X130489Y97484D01*
X130465Y97437D01*
X130436Y97394D01*
X130402Y97354D01*
X130362Y97320D01*
X130318Y97291D01*
X130271Y97267D01*
X130222Y97251D01*
X130170Y97240D01*
X130118Y97237D01*
X123819D01*
X123767Y97240D01*
X123715Y97251D01*
X123665Y97267D01*
X123618Y97291D01*
X123575Y97320D01*
X123535Y97354D01*
X123501Y97394D01*
X123472Y97437D01*
X123449Y97484D01*
X123432Y97534D01*
X123422Y97585D01*
X123418Y97638D01*
X123422Y97690D01*
X123432Y97742D01*
X123449Y97791D01*
X123472Y97838D01*
X123501Y97882D01*
X123535Y97921D01*
X126008Y100394D01*
X123535Y102866D01*
X123501Y102906D01*
X123472Y102949D01*
X123449Y102996D01*
X123432Y103046D01*
X123422Y103097D01*
X123418Y103150D01*
X123422Y103202D01*
X123432Y103253D01*
X123449Y103303D01*
X123472Y103350D01*
X123501Y103394D01*
X123535Y103433D01*
X123575Y103468D01*
X123618Y103497D01*
X123665Y103520D01*
X123715Y103537D01*
X123767Y103547D01*
X123819Y103551D01*
X130118D01*
X130170Y103547D01*
D02*
G37*
G36*
X122100D02*
X122151Y103537D01*
X122201Y103520D01*
X122248Y103497D01*
X122291Y103468D01*
X122331Y103433D01*
X125087Y100677D01*
X125121Y100638D01*
X125150Y100594D01*
X125166Y100563D01*
X125173Y100547D01*
X125190Y100497D01*
X125201Y100446D01*
X125204Y100394D01*
X125201Y100341D01*
X125190Y100290D01*
X125173Y100240D01*
X125150Y100193D01*
X125121Y100150D01*
X125087Y100110D01*
X122331Y97354D01*
X122291Y97320D01*
X122248Y97291D01*
X122201Y97267D01*
X122151Y97251D01*
X122100Y97240D01*
X122047Y97237D01*
X118898D01*
X118845Y97240D01*
X118794Y97251D01*
X118744Y97267D01*
X118697Y97291D01*
X118654Y97320D01*
X118614Y97354D01*
X118580Y97394D01*
X118551Y97437D01*
X118527Y97484D01*
X118510Y97534D01*
X118500Y97585D01*
X118497Y97638D01*
Y103150D01*
X118500Y103202D01*
X118510Y103253D01*
X118527Y103303D01*
X118551Y103350D01*
X118580Y103394D01*
X118614Y103433D01*
X118654Y103468D01*
X118697Y103497D01*
X118744Y103520D01*
X118794Y103537D01*
X118845Y103547D01*
X118898Y103551D01*
X122047D01*
X122100Y103547D01*
D02*
G37*
D27*
X57217Y62795D02*
D03*
Y59055D02*
D03*
Y55315D02*
D03*
X68767D02*
D03*
Y62795D02*
D03*
D31*
X166339Y76772D02*
D03*
X160433D02*
D03*
X65945Y47244D02*
D03*
X60039D02*
D03*
X370079Y33465D02*
D03*
X364173D02*
D03*
X349409Y108268D02*
D03*
X343504D02*
D03*
X349409Y90551D02*
D03*
X343504D02*
D03*
X349409Y72835D02*
D03*
X343504D02*
D03*
X150591Y159449D02*
D03*
X156496D02*
D03*
X126969Y92520D02*
D03*
X121063D02*
D03*
X125000Y70866D02*
D03*
X119095D02*
D03*
X187008Y120079D02*
D03*
X181102D02*
D03*
D32*
X210630Y55118D02*
D03*
X206693D02*
D03*
X155512Y153543D02*
D03*
X151575D02*
D03*
X364173Y41339D02*
D03*
X368110D02*
D03*
X183071Y116142D02*
D03*
X187008D02*
D03*
X198819Y122047D02*
D03*
X194882D02*
D03*
X206693Y122047D02*
D03*
X210630D02*
D03*
D33*
X94488Y88583D02*
D03*
Y82677D02*
D03*
X45276Y62008D02*
D03*
Y56102D02*
D03*
X33465Y56102D02*
D03*
Y62008D02*
D03*
X159449Y101378D02*
D03*
Y95472D02*
D03*
D34*
X39370Y61024D02*
D03*
Y57087D02*
D03*
X163386Y96457D02*
D03*
Y100394D02*
D03*
X224410Y102362D02*
D03*
Y98425D02*
D03*
X165354Y68898D02*
D03*
Y72835D02*
D03*
D35*
X168565Y113023D02*
D03*
X221237Y60101D02*
D03*
X348425Y15748D02*
D03*
Y161417D02*
D03*
X35433D02*
D03*
D36*
X102362Y82677D02*
D03*
Y88583D02*
D03*
D37*
X120276Y85787D02*
D03*
X127756D02*
D03*
Y76772D02*
D03*
X124016D02*
D03*
X120276D02*
D03*
D38*
X211417Y131890D02*
D03*
X196850D02*
D03*
D39*
X156988Y147638D02*
D03*
Y124016D02*
D03*
X142224Y147638D02*
D03*
Y124016D02*
D03*
D40*
X209646Y109449D02*
D03*
X207677D02*
D03*
X205709D02*
D03*
X203740D02*
D03*
X201772D02*
D03*
X199803D02*
D03*
X197835D02*
D03*
X195866D02*
D03*
X193898D02*
D03*
X191929D02*
D03*
X189961D02*
D03*
X187992D02*
D03*
X186024D02*
D03*
X184055D02*
D03*
X182087D02*
D03*
X180118D02*
D03*
Y63779D02*
D03*
X182087D02*
D03*
X184055D02*
D03*
X186024D02*
D03*
X187992D02*
D03*
X189961D02*
D03*
X191929D02*
D03*
X193898D02*
D03*
X195866D02*
D03*
X197835D02*
D03*
X199803D02*
D03*
X201772D02*
D03*
X203740D02*
D03*
X205709D02*
D03*
X207677D02*
D03*
X209646D02*
D03*
D41*
X172047Y101378D02*
D03*
Y99409D02*
D03*
Y97441D02*
D03*
Y95472D02*
D03*
Y93504D02*
D03*
Y91535D02*
D03*
Y89567D02*
D03*
Y87598D02*
D03*
Y85630D02*
D03*
Y83661D02*
D03*
Y81693D02*
D03*
Y79724D02*
D03*
Y77756D02*
D03*
Y75787D02*
D03*
Y73819D02*
D03*
Y71850D02*
D03*
X217717D02*
D03*
Y73819D02*
D03*
Y75787D02*
D03*
Y77756D02*
D03*
Y79724D02*
D03*
Y81693D02*
D03*
Y83661D02*
D03*
Y85630D02*
D03*
Y87598D02*
D03*
Y89567D02*
D03*
Y91535D02*
D03*
Y93504D02*
D03*
Y95472D02*
D03*
Y97441D02*
D03*
Y99409D02*
D03*
Y101378D02*
D03*
D42*
X53150Y17717D02*
D03*
D43*
Y35433D02*
D03*
D44*
X364016Y53150D02*
D03*
X376299Y139764D02*
D03*
X307244D02*
D03*
D45*
X374016Y53150D02*
D03*
X346299Y139764D02*
D03*
X356299D02*
D03*
X366299D02*
D03*
X247244D02*
D03*
X257244D02*
D03*
X267244D02*
D03*
X277244D02*
D03*
X297244D02*
D03*
X287244D02*
D03*
X318898Y27559D02*
D03*
D46*
X364016Y104331D02*
D03*
Y86614D02*
D03*
Y68898D02*
D03*
D47*
X374016Y104331D02*
D03*
Y86614D02*
D03*
Y68898D02*
D03*
D48*
X15748Y161417D02*
D03*
X370079D02*
D03*
Y15748D02*
D03*
X15748D02*
D03*
D49*
X122047Y43307D02*
D03*
X112205D02*
D03*
Y35433D02*
D03*
X122047D02*
D03*
D50*
X93425Y24764D02*
D03*
X140827D02*
D03*
D51*
X161417Y72835D02*
D03*
X163386Y118110D02*
D03*
X159449Y106299D02*
D03*
X326772Y104331D02*
D03*
X196850Y17717D02*
D03*
X163386Y88583D02*
D03*
X190945Y149606D02*
D03*
X228346Y72835D02*
D03*
X223909D02*
D03*
Y93588D02*
D03*
X297244Y42807D02*
D03*
X287402Y40839D02*
D03*
X201223Y57597D02*
D03*
X207102Y55331D02*
D03*
X204478Y57670D02*
D03*
X199153Y15414D02*
D03*
X108268Y88583D02*
D03*
X131890Y92520D02*
D03*
X124016Y64961D02*
D03*
X53150Y55118D02*
D03*
X33465Y51181D02*
D03*
X143701Y153543D02*
D03*
X190945Y116142D02*
D03*
X202756Y122047D02*
D03*
X187008Y125984D02*
D03*
M02*
