M48
;Layer_Color=9474304
;FILE_FORMAT=2:4
INCH,TZ
;TYPE=PLATED
T1F00S00C0.0157
T2F00S00C0.0335
T3F00S00C0.0354
T4F00S00C0.0362
T5F00S00C0.0882
T6F00S00C0.0906
T7F00S00C0.0988
T8F00S00C0.1260
%
T01
X3346Y5118
X5315Y5512
X20710Y5533
X19685Y1772
X19915Y1541
X28740Y4084
X29724Y4281
X32677Y10433
X22391Y9359
Y7283
X22835
X20448Y5767
X20122Y5760
X16142Y7283
X16339Y8858
X15945Y10630
X16339Y11811
X19094Y11614
X18701Y12598
X20276Y12205
X19094Y14961
X14370Y15354
X13189Y9252
X10827Y8858
X12402Y6496
T02
X37402Y6890
Y8661
Y10433
X36402
Y8661
Y6890
T03
X31890Y2756
X36402Y5315
X37402
X37630Y13976
X36630
X35630
X34630
X30724
X29724
X28724
X27724
X26724
X25724
X24724
T04
X11220Y3543
Y4331
X12205
Y3543
T05
X5315Y3543
T06
X9343Y2476
X14083
T07
X5315Y1772
T08
X1575Y1575
X37008
Y16142
X1575
M30
